<?xml version="1.0" encoding="UTF-8"?> <svg xmlns="http://www.w3.org/2000/svg" xmlns:xlink="http://www.w3.org/1999/xlink" width="93px" height="115px" viewBox="0 0 93 115" version="1.1"><!-- Generator: Sketch 47.1 (45422) - http://www.bohemiancoding.com/sketch --><title>Group 2</title><desc>Created with Sketch.</desc><defs></defs><g id="Page-1" stroke="none" stroke-width="1" fill="none" fill-rule="evenodd"><g id="Group-2"><rect id="Rectangle" fill-opacity="0.01" fill="#FFFFFF" x="0" y="0" width="92.7040816" height="115"></rect><g id="RNWmedia_RGB-01" transform="translate(2.346939, 8.214286)" fill-rule="nonzero"><g id="Group"><path d="M84.0018282,44.2867347 C84.0018282,31.4196429 73.5618622,20.9796769 60.6947704,20.9796769 L42.0590986,20.9796769 L42.0590986,0 L12.9169643,27.4963435 C8.87729592,31.7022534 6.83252551,35.6089286 6.08443878,39.8979592 C10.3568452,35.1434524 16.5410289,32.1511054 23.4234269,32.1511054 L55.1256803,32.1511054 C67.9927721,32.1511054 78.4327381,42.5910714 78.4327381,55.4581633 L78.4327381,55.4581633 C78.4327381,56.9709609 78.316369,58.4172619 78.0670068,59.8303146 C81.757568,55.7075255 84.0018282,50.2548044 84.0018282,44.2867347 L84.0018282,44.2867347 Z" id="Shape" fill="#FF1818"></path><path d="M60.6947704,67.5771684 L29.0091412,67.5771684 C16.1420493,67.5771684 5.70208333,57.1372024 5.70208333,44.2701105 L5.70208333,44.2701105 C5.70208333,42.7573129 5.81845238,41.3110119 6.06781463,39.8979592 C2.36062925,44.0207483 0.116369048,49.4734694 0.116369048,55.4581633 L0.116369048,55.4581633 C0.116369048,68.3252551 10.556335,78.7652211 23.4234269,78.7652211 L42.0590986,78.7652211 L42.0590986,99.744898 L71.201233,72.2485544 C75.2409014,68.0426446 77.2856718,64.1359694 78.0337585,59.8469388 C73.7779762,64.5848214 67.5937925,67.5771684 60.6947704,67.5771684 Z" id="Shape" fill="#00B0F2"></path><path d="M78.4161139,55.4581633 C78.4161139,42.5910714 67.976148,32.1511054 55.1090561,32.1511054 L23.4234269,32.1511054 C16.5410289,32.1511054 10.3402211,35.1434524 6.08443878,39.8979592 C5.83507653,41.3110119 5.71870748,42.7573129 5.71870748,44.2701105 L5.71870748,44.2701105 C5.71870748,57.1372024 16.1586735,67.5771684 29.0257653,67.5771684 L60.7280187,67.5771684 C67.6104167,67.5771684 73.8112245,64.5848214 78.0670068,59.8303146 C78.2997449,58.4338861 78.4161139,56.987585 78.4161139,55.4581633 L78.4161139,55.4581633 Z" id="Shape" fill="#FFFFFF"></path></g><g id="Group" transform="translate(21.943878, 40.895408)" fill="#000000"><g id="Shape"><polygon points="20.7136905 0.116369048 20.7136905 5.0869898 20.7968112 5.85170068 20.7136905 5.88494898 20.0819728 5.25323129 14.4131378 0.116369048 12.4681122 0.116369048 12.4681122 8.97704082 14.5960034 8.97704082 14.5960034 3.92329932 14.5128827 3.15858844 14.5960034 3.12534014 15.2110969 3.75705782 20.879932 8.97704082 22.8415816 8.97704082 22.8415816 0.116369048"></polygon><polygon points="38.767517 0.116369048 36.7393707 5.0869898 36.2905187 6.23405612 36.207398 6.23405612 35.8582908 5.0869898 33.8966412 0.116369048 32.217602 0.116369048 30.0897109 5.0869898 29.7406037 6.23405612 29.657483 6.23405612 29.2917517 5.0869898 27.3467262 0.116369048 25.0525935 0.116369048 28.5935374 8.97704082 30.5385629 8.97704082 32.8493197 3.75705782 33.0155612 3.12534014 33.098682 3.12534014 33.2815476 3.75705782 35.4094388 8.97704082 37.3544643 8.97704082 41.0782738 0.116369048"></polygon><path d="M7.89647109,6.59978741 C7.5307398,6.15093537 7.24812925,6.06781463 7.24812925,6.06781463 L7.24812925,5.98469388 C7.71360544,5.88494898 8.02946429,5.75195578 8.46169218,5.38622449 C9.07678571,4.83762755 9.45914116,4.03966837 9.45914116,3.14196429 C9.45914116,1.47954932 8.11258503,0.132993197 6.45017007,0.132993197 L0.0664965986,0.132993197 L0.0664965986,8.97704082 L2.19438776,8.97704082 L2.19438776,6.31717687 L5.0537415,6.31717687 L7.14838435,8.97704082 L9.7085034,8.97704082 L7.89647109,6.59978741 Z M6.10106293,4.45527211 L2.2110119,4.45527211 L2.2110119,2.16113946 L6.10106293,2.16113946 C6.73278061,2.16113946 7.24812925,2.6764881 7.24812925,3.30820578 C7.24812925,3.93992347 6.73278061,4.45527211 6.10106293,4.45527211 Z"></path></g><g transform="translate(0.498724, 10.306973)"><rect id="Rectangle-path" transform="translate(28.354067, 4.959882) rotate(-90.000000) translate(-28.354067, -4.959882) " x="25.7856354" y="4.42790876" width="5.13686224" height="1.06394558"></rect><path d="M6.93227041,2.2110119 C6.01794218,2.2110119 5.25323129,2.74298469 4.90412415,3.45782313 C4.67138605,2.72636054 3.97317177,2.2110119 3.04221939,2.2110119 C2.14451531,2.2110119 1.36318027,2.74298469 1.09719388,3.45782313 L1.01407313,2.39387755 L0.0332482993,2.39387755 L0.0332482993,7.5307398 L1.09719388,7.5307398 L1.09719388,4.33890306 L1.09719388,4.33890306 C1.09719388,3.62406463 1.84528061,3.09209184 2.70973639,3.09209184 C3.49107143,3.09209184 3.92329932,3.54094388 3.92329932,4.15603741 L3.92329932,7.51411565 L4.9872449,7.51411565 L4.9872449,4.32227891 L4.9872449,4.32227891 C4.9872449,3.60744048 5.73533163,3.07546769 6.59978741,3.07546769 C7.38112245,3.07546769 7.81335034,3.52431973 7.81335034,4.13941327 L7.81335034,7.4974915 L8.87729592,7.4974915 L8.87729592,3.98979592 C8.87729592,3.00897109 8.16245748,2.2110119 6.93227041,2.2110119 Z" id="Shape"></path><path d="M17.0231293,4.9539966 C17.0231293,3.44119898 15.8760629,2.2110119 14.1970238,2.2110119 C12.5179847,2.2110119 11.1880527,3.39132653 11.1880527,4.9539966 C11.1880527,6.73278061 12.6011054,7.69698129 14.4630102,7.69698129 C15.3440901,7.69698129 16.2417942,7.4309949 16.7571429,7.08188776 L16.4911565,6.20080782 C16.2251701,6.38367347 15.6100765,6.81590136 14.546131,6.81590136 C13.1995748,6.81590136 12.335119,6.18418367 12.2519983,5.13686224 L16.9400085,5.13686224 L17.0231293,4.9539966 Z M12.2852466,4.50514456 C12.4681122,3.62406463 13.1829507,3.09209184 14.0972789,3.09209184 C15.0116071,3.09209184 15.8095663,3.62406463 15.992432,4.50514456 L12.2852466,4.50514456 Z" id="Shape"></path><path d="M23.9221514,0.432227891 L23.9221514,3.42457483 C23.4234269,2.65986395 22.5922194,2.19438776 21.7942602,2.19438776 C20.4643282,2.19438776 18.9681548,3.14196429 18.9681548,4.93737245 C18.9681548,6.73278061 20.4809524,7.68035714 21.7942602,7.68035714 C22.5922194,7.68035714 23.4234269,7.21488095 23.9221514,6.45017007 L23.9221514,7.4974915 L24.9860969,7.4974915 L24.9860969,0.415603741 L23.9221514,0.415603741 L23.9221514,0.432227891 Z M22.0768707,6.81590136 C20.8300595,6.81590136 20.1318452,5.98469388 20.1318452,4.9539966 C20.1318452,3.92329932 20.8466837,3.09209184 22.0768707,3.09209184 C23.1574405,3.09209184 24.0218963,3.92329932 24.0218963,4.9539966 C24.0218963,5.98469388 23.1408163,6.81590136 22.0768707,6.81590136 Z" id="Shape"></path><circle id="Oval" cx="28.3607993" cy="0.797959184" r="1"></circle><path d="M36.1409014,2.2110119 L36.1409014,3.44119898 C35.6421769,2.6764881 34.8109694,2.2110119 34.0130102,2.2110119 C32.6830782,2.2110119 31.1869048,3.15858844 31.1869048,4.9539966 C31.1869048,6.74940476 32.6997024,7.69698129 34.0130102,7.69698129 C34.8109694,7.69698129 35.6421769,7.2315051 36.1409014,6.46679422 L36.1409014,7.51411565 L37.2048469,7.51411565 L37.2048469,2.19438776 L36.1409014,2.19438776 L36.1409014,2.2110119 Z M34.2956207,6.81590136 C33.0488095,6.81590136 32.3505952,5.98469388 32.3505952,4.9539966 C32.3505952,3.92329932 33.0654337,3.09209184 34.2956207,3.09209184 C35.3761905,3.09209184 36.2406463,3.92329932 36.2406463,4.9539966 C36.2406463,5.98469388 35.3595663,6.81590136 34.2956207,6.81590136 Z" id="Shape"></path></g></g></g></g></g></svg> 